<svg xmlns="http://www.w3.org/2000/svg" viewBox="0 0 200 200" width="200" height="200"><polygon points="188.828,131.655 171.828,161.100 137.828,161.100 120.828,131.655 137.828,102.210 171.828,102.210" fill="#0047AB" stroke="#0047AB" stroke-width="3.74" stroke-linejoin="round"/>
<polygon points="134.000,163.310 117.000,192.755 83.000,192.755 66.000,163.310 83.000,133.865 117.000,133.865" fill="#5D4037" stroke="#5D4037" stroke-width="3.74" stroke-linejoin="round"/>
<polygon points="79.172,131.655 62.172,161.100 28.172,161.100 11.172,131.655 28.172,102.210 62.172,102.210" fill="#004D40" stroke="#004D40" stroke-width="3.74" stroke-linejoin="round"/>
<polygon points="79.172,68.345 62.172,97.790 28.172,97.790 11.172,68.345 28.172,38.900 62.172,38.900" fill="#BF5A36" stroke="#BF5A36" stroke-width="3.74" stroke-linejoin="round"/>
<polygon points="134.000,36.690 117.000,66.135 83.000,66.135 66.000,36.690 83.000,7.245 117.000,7.245" fill="#283593" stroke="#283593" stroke-width="3.74" stroke-linejoin="round"/>
<polygon points="188.828,68.345 171.828,97.790 137.828,97.790 120.828,68.345 137.828,38.900 171.828,38.900" fill="#A0522D" stroke="#A0522D" stroke-width="3.74" stroke-linejoin="round"/>
<polygon points="134.000,100.000 117.000,129.445 83.000,129.445 66.000,100.000 83.000,70.555 117.000,70.555" fill="#4B0082" stroke="#4B0082" stroke-width="3.74" stroke-linejoin="round"/></svg>
