<svg xmlns="http://www.w3.org/2000/svg" viewBox="0 0 1600 900" width="1600" height="900"><rect width="1600" height="900" fill="#F3F2EE"/><polygon points="0.000,-46.000 -23.000,-6.163 -69.000,-6.163 -92.000,-46.000 -69.000,-85.837 -23.000,-85.837" fill="none" stroke="#4B0082" stroke-width="2.0" opacity="0.1"/>
<polygon points="0.000,33.674 -23.000,73.512 -69.000,73.512 -92.000,33.674 -69.000,-6.163 -23.000,-6.163" fill="none" stroke="#4B0082" stroke-width="2.0" opacity="0.1"/>
<polygon points="0.000,113.349 -23.000,153.186 -69.000,153.186 -92.000,113.349 -69.000,73.512 -23.000,73.512" fill="none" stroke="#4B0082" stroke-width="2.0" opacity="0.1"/>
<polygon points="0.000,193.023 -23.000,232.860 -69.000,232.860 -92.000,193.023 -69.000,153.186 -23.000,153.186" fill="none" stroke="#4B0082" stroke-width="2.0" opacity="0.1"/>
<polygon points="0.000,272.697 -23.000,312.535 -69.000,312.535 -92.000,272.697 -69.000,232.860 -23.000,232.860" fill="none" stroke="#4B0082" stroke-width="2.0" opacity="0.1"/>
<polygon points="0.000,352.372 -23.000,392.209 -69.000,392.209 -92.000,352.372 -69.000,312.535 -23.000,312.535" fill="none" stroke="#4B0082" stroke-width="2.0" opacity="0.1"/>
<polygon points="0.000,432.046 -23.000,471.883 -69.000,471.883 -92.000,432.046 -69.000,392.209 -23.000,392.209" fill="none" stroke="#4B0082" stroke-width="2.0" opacity="0.1"/>
<polygon points="0.000,511.720 -23.000,551.558 -69.000,551.558 -92.000,511.720 -69.000,471.883 -23.000,471.883" fill="none" stroke="#4B0082" stroke-width="2.0" opacity="0.1"/>
<polygon points="0.000,591.395 -23.000,631.232 -69.000,631.232 -92.000,591.395 -69.000,551.558 -23.000,551.558" fill="none" stroke="#4B0082" stroke-width="2.0" opacity="0.1"/>
<polygon points="0.000,671.069 -23.000,710.906 -69.000,710.906 -92.000,671.069 -69.000,631.232 -23.000,631.232" fill="none" stroke="#4B0082" stroke-width="2.0" opacity="0.1"/>
<polygon points="0.000,750.743 -23.000,790.581 -69.000,790.581 -92.000,750.743 -69.000,710.906 -23.000,710.906" fill="none" stroke="#4B0082" stroke-width="2.0" opacity="0.1"/>
<polygon points="0.000,830.418 -23.000,870.255 -69.000,870.255 -92.000,830.418 -69.000,790.581 -23.000,790.581" fill="none" stroke="#4B0082" stroke-width="2.0" opacity="0.1"/>
<polygon points="0.000,910.092 -23.000,949.929 -69.000,949.929 -92.000,910.092 -69.000,870.255 -23.000,870.255" fill="none" stroke="#4B0082" stroke-width="2.0" opacity="0.1"/>
<polygon points="69.000,-6.163 46.000,33.674 0.000,33.674 -23.000,-6.163 -0.000,-46.000 46.000,-46.000" fill="none" stroke="#4B0082" stroke-width="2.0" opacity="0.1"/>
<polygon points="69.000,73.512 46.000,113.349 0.000,113.349 -23.000,73.512 -0.000,33.674 46.000,33.674" fill="none" stroke="#4B0082" stroke-width="2.0" opacity="0.1"/>
<polygon points="69.000,153.186 46.000,193.023 0.000,193.023 -23.000,153.186 -0.000,113.349 46.000,113.349" fill="none" stroke="#4B0082" stroke-width="2.0" opacity="0.1"/>
<polygon points="69.000,232.860 46.000,272.697 0.000,272.697 -23.000,232.860 -0.000,193.023 46.000,193.023" fill="none" stroke="#4B0082" stroke-width="2.0" opacity="0.1"/>
<polygon points="69.000,312.535 46.000,352.372 0.000,352.372 -23.000,312.535 -0.000,272.697 46.000,272.697" fill="none" stroke="#4B0082" stroke-width="2.0" opacity="0.1"/>
<polygon points="69.000,392.209 46.000,432.046 0.000,432.046 -23.000,392.209 -0.000,352.372 46.000,352.372" fill="none" stroke="#4B0082" stroke-width="2.0" opacity="0.1"/>
<polygon points="69.000,471.883 46.000,511.720 0.000,511.720 -23.000,471.883 -0.000,432.046 46.000,432.046" fill="none" stroke="#4B0082" stroke-width="2.0" opacity="0.1"/>
<polygon points="69.000,551.558 46.000,591.395 0.000,591.395 -23.000,551.558 -0.000,511.720 46.000,511.720" fill="none" stroke="#4B0082" stroke-width="2.0" opacity="0.1"/>
<polygon points="69.000,631.232 46.000,671.069 0.000,671.069 -23.000,631.232 -0.000,591.395 46.000,591.395" fill="none" stroke="#4B0082" stroke-width="2.0" opacity="0.1"/>
<polygon points="69.000,710.906 46.000,750.743 0.000,750.743 -23.000,710.906 -0.000,671.069 46.000,671.069" fill="none" stroke="#4B0082" stroke-width="2.0" opacity="0.1"/>
<polygon points="69.000,790.581 46.000,830.418 0.000,830.418 -23.000,790.581 -0.000,750.743 46.000,750.743" fill="none" stroke="#4B0082" stroke-width="2.0" opacity="0.1"/>
<polygon points="69.000,870.255 46.000,910.092 0.000,910.092 -23.000,870.255 -0.000,830.418 46.000,830.418" fill="none" stroke="#4B0082" stroke-width="2.0" opacity="0.1"/>
<polygon points="69.000,949.929 46.000,989.766 0.000,989.766 -23.000,949.929 -0.000,910.092 46.000,910.092" fill="none" stroke="#4B0082" stroke-width="2.0" opacity="0.1"/>
<polygon points="138.000,-46.000 115.000,-6.163 69.000,-6.163 46.000,-46.000 69.000,-85.837 115.000,-85.837" fill="none" stroke="#4B0082" stroke-width="2.0" opacity="0.1"/>
<polygon points="138.000,33.674 115.000,73.512 69.000,73.512 46.000,33.674 69.000,-6.163 115.000,-6.163" fill="none" stroke="#4B0082" stroke-width="2.0" opacity="0.1"/>
<polygon points="138.000,113.349 115.000,153.186 69.000,153.186 46.000,113.349 69.000,73.512 115.000,73.512" fill="none" stroke="#4B0082" stroke-width="2.0" opacity="0.1"/>
<polygon points="138.000,193.023 115.000,232.860 69.000,232.860 46.000,193.023 69.000,153.186 115.000,153.186" fill="none" stroke="#4B0082" stroke-width="2.0" opacity="0.1"/>
<polygon points="138.000,272.697 115.000,312.535 69.000,312.535 46.000,272.697 69.000,232.860 115.000,232.860" fill="none" stroke="#4B0082" stroke-width="2.0" opacity="0.1"/>
<polygon points="138.000,352.372 115.000,392.209 69.000,392.209 46.000,352.372 69.000,312.535 115.000,312.535" fill="none" stroke="#4B0082" stroke-width="2.0" opacity="0.1"/>
<polygon points="138.000,432.046 115.000,471.883 69.000,471.883 46.000,432.046 69.000,392.209 115.000,392.209" fill="none" stroke="#4B0082" stroke-width="2.0" opacity="0.1"/>
<polygon points="138.000,511.720 115.000,551.558 69.000,551.558 46.000,511.720 69.000,471.883 115.000,471.883" fill="none" stroke="#4B0082" stroke-width="2.0" opacity="0.1"/>
<polygon points="138.000,591.395 115.000,631.232 69.000,631.232 46.000,591.395 69.000,551.558 115.000,551.558" fill="none" stroke="#4B0082" stroke-width="2.0" opacity="0.1"/>
<polygon points="138.000,671.069 115.000,710.906 69.000,710.906 46.000,671.069 69.000,631.232 115.000,631.232" fill="none" stroke="#4B0082" stroke-width="2.0" opacity="0.1"/>
<polygon points="138.000,750.743 115.000,790.581 69.000,790.581 46.000,750.743 69.000,710.906 115.000,710.906" fill="none" stroke="#4B0082" stroke-width="2.0" opacity="0.1"/>
<polygon points="138.000,830.418 115.000,870.255 69.000,870.255 46.000,830.418 69.000,790.581 115.000,790.581" fill="none" stroke="#4B0082" stroke-width="2.0" opacity="0.1"/>
<polygon points="138.000,910.092 115.000,949.929 69.000,949.929 46.000,910.092 69.000,870.255 115.000,870.255" fill="none" stroke="#4B0082" stroke-width="2.0" opacity="0.1"/>
<polygon points="207.000,-6.163 184.000,33.674 138.000,33.674 115.000,-6.163 138.000,-46.000 184.000,-46.000" fill="none" stroke="#4B0082" stroke-width="2.0" opacity="0.1"/>
<polygon points="207.000,73.512 184.000,113.349 138.000,113.349 115.000,73.512 138.000,33.674 184.000,33.674" fill="none" stroke="#4B0082" stroke-width="2.0" opacity="0.1"/>
<polygon points="207.000,153.186 184.000,193.023 138.000,193.023 115.000,153.186 138.000,113.349 184.000,113.349" fill="none" stroke="#4B0082" stroke-width="2.0" opacity="0.1"/>
<polygon points="207.000,232.860 184.000,272.697 138.000,272.697 115.000,232.860 138.000,193.023 184.000,193.023" fill="none" stroke="#4B0082" stroke-width="2.0" opacity="0.1"/>
<polygon points="207.000,312.535 184.000,352.372 138.000,352.372 115.000,312.535 138.000,272.697 184.000,272.697" fill="none" stroke="#4B0082" stroke-width="2.0" opacity="0.1"/>
<polygon points="207.000,392.209 184.000,432.046 138.000,432.046 115.000,392.209 138.000,352.372 184.000,352.372" fill="none" stroke="#4B0082" stroke-width="2.0" opacity="0.1"/>
<polygon points="207.000,471.883 184.000,511.720 138.000,511.720 115.000,471.883 138.000,432.046 184.000,432.046" fill="none" stroke="#4B0082" stroke-width="2.0" opacity="0.1"/>
<polygon points="207.000,551.558 184.000,591.395 138.000,591.395 115.000,551.558 138.000,511.720 184.000,511.720" fill="none" stroke="#4B0082" stroke-width="2.0" opacity="0.1"/>
<polygon points="207.000,631.232 184.000,671.069 138.000,671.069 115.000,631.232 138.000,591.395 184.000,591.395" fill="none" stroke="#4B0082" stroke-width="2.0" opacity="0.1"/>
<polygon points="207.000,710.906 184.000,750.743 138.000,750.743 115.000,710.906 138.000,671.069 184.000,671.069" fill="none" stroke="#4B0082" stroke-width="2.0" opacity="0.1"/>
<polygon points="207.000,790.581 184.000,830.418 138.000,830.418 115.000,790.581 138.000,750.743 184.000,750.743" fill="none" stroke="#4B0082" stroke-width="2.0" opacity="0.1"/>
<polygon points="207.000,870.255 184.000,910.092 138.000,910.092 115.000,870.255 138.000,830.418 184.000,830.418" fill="none" stroke="#4B0082" stroke-width="2.0" opacity="0.1"/>
<polygon points="207.000,949.929 184.000,989.766 138.000,989.766 115.000,949.929 138.000,910.092 184.000,910.092" fill="none" stroke="#4B0082" stroke-width="2.0" opacity="0.1"/>
<polygon points="276.000,-46.000 253.000,-6.163 207.000,-6.163 184.000,-46.000 207.000,-85.837 253.000,-85.837" fill="none" stroke="#4B0082" stroke-width="2.0" opacity="0.1"/>
<polygon points="276.000,33.674 253.000,73.512 207.000,73.512 184.000,33.674 207.000,-6.163 253.000,-6.163" fill="none" stroke="#4B0082" stroke-width="2.0" opacity="0.1"/>
<polygon points="276.000,113.349 253.000,153.186 207.000,153.186 184.000,113.349 207.000,73.512 253.000,73.512" fill="none" stroke="#4B0082" stroke-width="2.0" opacity="0.1"/>
<polygon points="276.000,193.023 253.000,232.860 207.000,232.860 184.000,193.023 207.000,153.186 253.000,153.186" fill="none" stroke="#4B0082" stroke-width="2.0" opacity="0.1"/>
<polygon points="276.000,272.697 253.000,312.535 207.000,312.535 184.000,272.697 207.000,232.860 253.000,232.860" fill="none" stroke="#4B0082" stroke-width="2.0" opacity="0.1"/>
<polygon points="276.000,352.372 253.000,392.209 207.000,392.209 184.000,352.372 207.000,312.535 253.000,312.535" fill="none" stroke="#4B0082" stroke-width="2.0" opacity="0.1"/>
<polygon points="276.000,432.046 253.000,471.883 207.000,471.883 184.000,432.046 207.000,392.209 253.000,392.209" fill="none" stroke="#4B0082" stroke-width="2.0" opacity="0.1"/>
<polygon points="276.000,511.720 253.000,551.558 207.000,551.558 184.000,511.720 207.000,471.883 253.000,471.883" fill="none" stroke="#4B0082" stroke-width="2.0" opacity="0.1"/>
<polygon points="276.000,591.395 253.000,631.232 207.000,631.232 184.000,591.395 207.000,551.558 253.000,551.558" fill="none" stroke="#4B0082" stroke-width="2.0" opacity="0.1"/>
<polygon points="276.000,671.069 253.000,710.906 207.000,710.906 184.000,671.069 207.000,631.232 253.000,631.232" fill="none" stroke="#4B0082" stroke-width="2.0" opacity="0.1"/>
<polygon points="276.000,750.743 253.000,790.581 207.000,790.581 184.000,750.743 207.000,710.906 253.000,710.906" fill="none" stroke="#4B0082" stroke-width="2.0" opacity="0.1"/>
<polygon points="276.000,830.418 253.000,870.255 207.000,870.255 184.000,830.418 207.000,790.581 253.000,790.581" fill="none" stroke="#4B0082" stroke-width="2.0" opacity="0.1"/>
<polygon points="276.000,910.092 253.000,949.929 207.000,949.929 184.000,910.092 207.000,870.255 253.000,870.255" fill="none" stroke="#4B0082" stroke-width="2.0" opacity="0.1"/>
<polygon points="345.000,-6.163 322.000,33.674 276.000,33.674 253.000,-6.163 276.000,-46.000 322.000,-46.000" fill="none" stroke="#4B0082" stroke-width="2.0" opacity="0.1"/>
<polygon points="345.000,73.512 322.000,113.349 276.000,113.349 253.000,73.512 276.000,33.674 322.000,33.674" fill="none" stroke="#4B0082" stroke-width="2.0" opacity="0.1"/>
<polygon points="345.000,153.186 322.000,193.023 276.000,193.023 253.000,153.186 276.000,113.349 322.000,113.349" fill="none" stroke="#4B0082" stroke-width="2.0" opacity="0.1"/>
<polygon points="345.000,232.860 322.000,272.697 276.000,272.697 253.000,232.860 276.000,193.023 322.000,193.023" fill="none" stroke="#4B0082" stroke-width="2.0" opacity="0.1"/>
<polygon points="345.000,312.535 322.000,352.372 276.000,352.372 253.000,312.535 276.000,272.697 322.000,272.697" fill="none" stroke="#4B0082" stroke-width="2.0" opacity="0.1"/>
<polygon points="345.000,392.209 322.000,432.046 276.000,432.046 253.000,392.209 276.000,352.372 322.000,352.372" fill="none" stroke="#4B0082" stroke-width="2.0" opacity="0.1"/>
<polygon points="345.000,471.883 322.000,511.720 276.000,511.720 253.000,471.883 276.000,432.046 322.000,432.046" fill="none" stroke="#4B0082" stroke-width="2.0" opacity="0.1"/>
<polygon points="345.000,551.558 322.000,591.395 276.000,591.395 253.000,551.558 276.000,511.720 322.000,511.720" fill="none" stroke="#4B0082" stroke-width="2.0" opacity="0.1"/>
<polygon points="345.000,631.232 322.000,671.069 276.000,671.069 253.000,631.232 276.000,591.395 322.000,591.395" fill="none" stroke="#4B0082" stroke-width="2.0" opacity="0.1"/>
<polygon points="345.000,710.906 322.000,750.743 276.000,750.743 253.000,710.906 276.000,671.069 322.000,671.069" fill="none" stroke="#4B0082" stroke-width="2.0" opacity="0.1"/>
<polygon points="345.000,790.581 322.000,830.418 276.000,830.418 253.000,790.581 276.000,750.743 322.000,750.743" fill="none" stroke="#4B0082" stroke-width="2.0" opacity="0.1"/>
<polygon points="345.000,870.255 322.000,910.092 276.000,910.092 253.000,870.255 276.000,830.418 322.000,830.418" fill="none" stroke="#4B0082" stroke-width="2.0" opacity="0.1"/>
<polygon points="345.000,949.929 322.000,989.766 276.000,989.766 253.000,949.929 276.000,910.092 322.000,910.092" fill="none" stroke="#4B0082" stroke-width="2.0" opacity="0.1"/>
<polygon points="414.000,-46.000 391.000,-6.163 345.000,-6.163 322.000,-46.000 345.000,-85.837 391.000,-85.837" fill="none" stroke="#4B0082" stroke-width="2.0" opacity="0.1"/>
<polygon points="414.000,33.674 391.000,73.512 345.000,73.512 322.000,33.674 345.000,-6.163 391.000,-6.163" fill="none" stroke="#4B0082" stroke-width="2.0" opacity="0.1"/>
<polygon points="414.000,113.349 391.000,153.186 345.000,153.186 322.000,113.349 345.000,73.512 391.000,73.512" fill="none" stroke="#4B0082" stroke-width="2.0" opacity="0.1"/>
<polygon points="414.000,193.023 391.000,232.860 345.000,232.860 322.000,193.023 345.000,153.186 391.000,153.186" fill="none" stroke="#4B0082" stroke-width="2.0" opacity="0.1"/>
<polygon points="414.000,272.697 391.000,312.535 345.000,312.535 322.000,272.697 345.000,232.860 391.000,232.860" fill="none" stroke="#4B0082" stroke-width="2.0" opacity="0.1"/>
<polygon points="414.000,352.372 391.000,392.209 345.000,392.209 322.000,352.372 345.000,312.535 391.000,312.535" fill="none" stroke="#4B0082" stroke-width="2.0" opacity="0.1"/>
<polygon points="414.000,432.046 391.000,471.883 345.000,471.883 322.000,432.046 345.000,392.209 391.000,392.209" fill="none" stroke="#4B0082" stroke-width="2.0" opacity="0.1"/>
<polygon points="414.000,511.720 391.000,551.558 345.000,551.558 322.000,511.720 345.000,471.883 391.000,471.883" fill="none" stroke="#4B0082" stroke-width="2.0" opacity="0.1"/>
<polygon points="414.000,591.395 391.000,631.232 345.000,631.232 322.000,591.395 345.000,551.558 391.000,551.558" fill="none" stroke="#4B0082" stroke-width="2.0" opacity="0.1"/>
<polygon points="414.000,671.069 391.000,710.906 345.000,710.906 322.000,671.069 345.000,631.232 391.000,631.232" fill="none" stroke="#4B0082" stroke-width="2.0" opacity="0.1"/>
<polygon points="414.000,750.743 391.000,790.581 345.000,790.581 322.000,750.743 345.000,710.906 391.000,710.906" fill="none" stroke="#4B0082" stroke-width="2.0" opacity="0.1"/>
<polygon points="414.000,830.418 391.000,870.255 345.000,870.255 322.000,830.418 345.000,790.581 391.000,790.581" fill="none" stroke="#4B0082" stroke-width="2.0" opacity="0.1"/>
<polygon points="414.000,910.092 391.000,949.929 345.000,949.929 322.000,910.092 345.000,870.255 391.000,870.255" fill="none" stroke="#4B0082" stroke-width="2.0" opacity="0.1"/>
<polygon points="483.000,-6.163 460.000,33.674 414.000,33.674 391.000,-6.163 414.000,-46.000 460.000,-46.000" fill="none" stroke="#4B0082" stroke-width="2.0" opacity="0.1"/>
<polygon points="483.000,73.512 460.000,113.349 414.000,113.349 391.000,73.512 414.000,33.674 460.000,33.674" fill="none" stroke="#4B0082" stroke-width="2.0" opacity="0.1"/>
<polygon points="483.000,153.186 460.000,193.023 414.000,193.023 391.000,153.186 414.000,113.349 460.000,113.349" fill="none" stroke="#4B0082" stroke-width="2.0" opacity="0.1"/>
<polygon points="483.000,232.860 460.000,272.697 414.000,272.697 391.000,232.860 414.000,193.023 460.000,193.023" fill="none" stroke="#4B0082" stroke-width="2.0" opacity="0.1"/>
<polygon points="483.000,312.535 460.000,352.372 414.000,352.372 391.000,312.535 414.000,272.697 460.000,272.697" fill="none" stroke="#4B0082" stroke-width="2.0" opacity="0.1"/>
<polygon points="483.000,392.209 460.000,432.046 414.000,432.046 391.000,392.209 414.000,352.372 460.000,352.372" fill="none" stroke="#4B0082" stroke-width="2.0" opacity="0.1"/>
<polygon points="483.000,471.883 460.000,511.720 414.000,511.720 391.000,471.883 414.000,432.046 460.000,432.046" fill="none" stroke="#4B0082" stroke-width="2.0" opacity="0.1"/>
<polygon points="483.000,551.558 460.000,591.395 414.000,591.395 391.000,551.558 414.000,511.720 460.000,511.720" fill="none" stroke="#4B0082" stroke-width="2.0" opacity="0.1"/>
<polygon points="483.000,631.232 460.000,671.069 414.000,671.069 391.000,631.232 414.000,591.395 460.000,591.395" fill="none" stroke="#4B0082" stroke-width="2.0" opacity="0.1"/>
<polygon points="483.000,710.906 460.000,750.743 414.000,750.743 391.000,710.906 414.000,671.069 460.000,671.069" fill="none" stroke="#4B0082" stroke-width="2.0" opacity="0.1"/>
<polygon points="483.000,790.581 460.000,830.418 414.000,830.418 391.000,790.581 414.000,750.743 460.000,750.743" fill="none" stroke="#4B0082" stroke-width="2.0" opacity="0.1"/>
<polygon points="483.000,870.255 460.000,910.092 414.000,910.092 391.000,870.255 414.000,830.418 460.000,830.418" fill="none" stroke="#4B0082" stroke-width="2.0" opacity="0.1"/>
<polygon points="483.000,949.929 460.000,989.766 414.000,989.766 391.000,949.929 414.000,910.092 460.000,910.092" fill="none" stroke="#4B0082" stroke-width="2.0" opacity="0.1"/>
<polygon points="552.000,-46.000 529.000,-6.163 483.000,-6.163 460.000,-46.000 483.000,-85.837 529.000,-85.837" fill="none" stroke="#4B0082" stroke-width="2.0" opacity="0.1"/>
<polygon points="552.000,33.674 529.000,73.512 483.000,73.512 460.000,33.674 483.000,-6.163 529.000,-6.163" fill="none" stroke="#4B0082" stroke-width="2.0" opacity="0.1"/>
<polygon points="552.000,113.349 529.000,153.186 483.000,153.186 460.000,113.349 483.000,73.512 529.000,73.512" fill="none" stroke="#4B0082" stroke-width="2.0" opacity="0.1"/>
<polygon points="552.000,193.023 529.000,232.860 483.000,232.860 460.000,193.023 483.000,153.186 529.000,153.186" fill="none" stroke="#4B0082" stroke-width="2.0" opacity="0.1"/>
<polygon points="552.000,272.697 529.000,312.535 483.000,312.535 460.000,272.697 483.000,232.860 529.000,232.860" fill="none" stroke="#4B0082" stroke-width="2.0" opacity="0.1"/>
<polygon points="552.000,352.372 529.000,392.209 483.000,392.209 460.000,352.372 483.000,312.535 529.000,312.535" fill="none" stroke="#4B0082" stroke-width="2.0" opacity="0.1"/>
<polygon points="552.000,432.046 529.000,471.883 483.000,471.883 460.000,432.046 483.000,392.209 529.000,392.209" fill="none" stroke="#4B0082" stroke-width="2.0" opacity="0.1"/>
<polygon points="552.000,511.720 529.000,551.558 483.000,551.558 460.000,511.720 483.000,471.883 529.000,471.883" fill="none" stroke="#4B0082" stroke-width="2.0" opacity="0.1"/>
<polygon points="552.000,591.395 529.000,631.232 483.000,631.232 460.000,591.395 483.000,551.558 529.000,551.558" fill="none" stroke="#4B0082" stroke-width="2.0" opacity="0.1"/>
<polygon points="552.000,671.069 529.000,710.906 483.000,710.906 460.000,671.069 483.000,631.232 529.000,631.232" fill="none" stroke="#4B0082" stroke-width="2.0" opacity="0.1"/>
<polygon points="552.000,750.743 529.000,790.581 483.000,790.581 460.000,750.743 483.000,710.906 529.000,710.906" fill="none" stroke="#4B0082" stroke-width="2.0" opacity="0.1"/>
<polygon points="552.000,830.418 529.000,870.255 483.000,870.255 460.000,830.418 483.000,790.581 529.000,790.581" fill="none" stroke="#4B0082" stroke-width="2.0" opacity="0.1"/>
<polygon points="552.000,910.092 529.000,949.929 483.000,949.929 460.000,910.092 483.000,870.255 529.000,870.255" fill="none" stroke="#4B0082" stroke-width="2.0" opacity="0.1"/>
<polygon points="621.000,-6.163 598.000,33.674 552.000,33.674 529.000,-6.163 552.000,-46.000 598.000,-46.000" fill="none" stroke="#4B0082" stroke-width="2.0" opacity="0.1"/>
<polygon points="621.000,73.512 598.000,113.349 552.000,113.349 529.000,73.512 552.000,33.674 598.000,33.674" fill="none" stroke="#4B0082" stroke-width="2.0" opacity="0.1"/>
<polygon points="621.000,153.186 598.000,193.023 552.000,193.023 529.000,153.186 552.000,113.349 598.000,113.349" fill="none" stroke="#4B0082" stroke-width="2.0" opacity="0.1"/>
<polygon points="621.000,232.860 598.000,272.697 552.000,272.697 529.000,232.860 552.000,193.023 598.000,193.023" fill="none" stroke="#4B0082" stroke-width="2.0" opacity="0.1"/>
<polygon points="621.000,312.535 598.000,352.372 552.000,352.372 529.000,312.535 552.000,272.697 598.000,272.697" fill="none" stroke="#4B0082" stroke-width="2.0" opacity="0.1"/>
<polygon points="621.000,392.209 598.000,432.046 552.000,432.046 529.000,392.209 552.000,352.372 598.000,352.372" fill="none" stroke="#4B0082" stroke-width="2.0" opacity="0.1"/>
<polygon points="621.000,471.883 598.000,511.720 552.000,511.720 529.000,471.883 552.000,432.046 598.000,432.046" fill="none" stroke="#4B0082" stroke-width="2.0" opacity="0.1"/>
<polygon points="621.000,551.558 598.000,591.395 552.000,591.395 529.000,551.558 552.000,511.720 598.000,511.720" fill="none" stroke="#4B0082" stroke-width="2.0" opacity="0.1"/>
<polygon points="621.000,631.232 598.000,671.069 552.000,671.069 529.000,631.232 552.000,591.395 598.000,591.395" fill="none" stroke="#4B0082" stroke-width="2.0" opacity="0.1"/>
<polygon points="621.000,710.906 598.000,750.743 552.000,750.743 529.000,710.906 552.000,671.069 598.000,671.069" fill="none" stroke="#4B0082" stroke-width="2.0" opacity="0.1"/>
<polygon points="621.000,790.581 598.000,830.418 552.000,830.418 529.000,790.581 552.000,750.743 598.000,750.743" fill="none" stroke="#4B0082" stroke-width="2.0" opacity="0.1"/>
<polygon points="621.000,870.255 598.000,910.092 552.000,910.092 529.000,870.255 552.000,830.418 598.000,830.418" fill="none" stroke="#4B0082" stroke-width="2.0" opacity="0.1"/>
<polygon points="621.000,949.929 598.000,989.766 552.000,989.766 529.000,949.929 552.000,910.092 598.000,910.092" fill="none" stroke="#4B0082" stroke-width="2.0" opacity="0.1"/>
<polygon points="690.000,-46.000 667.000,-6.163 621.000,-6.163 598.000,-46.000 621.000,-85.837 667.000,-85.837" fill="none" stroke="#4B0082" stroke-width="2.0" opacity="0.1"/>
<polygon points="690.000,33.674 667.000,73.512 621.000,73.512 598.000,33.674 621.000,-6.163 667.000,-6.163" fill="none" stroke="#4B0082" stroke-width="2.0" opacity="0.1"/>
<polygon points="690.000,113.349 667.000,153.186 621.000,153.186 598.000,113.349 621.000,73.512 667.000,73.512" fill="none" stroke="#4B0082" stroke-width="2.0" opacity="0.1"/>
<polygon points="690.000,193.023 667.000,232.860 621.000,232.860 598.000,193.023 621.000,153.186 667.000,153.186" fill="none" stroke="#4B0082" stroke-width="2.0" opacity="0.1"/>
<polygon points="690.000,272.697 667.000,312.535 621.000,312.535 598.000,272.697 621.000,232.860 667.000,232.860" fill="none" stroke="#4B0082" stroke-width="2.0" opacity="0.1"/>
<polygon points="690.000,352.372 667.000,392.209 621.000,392.209 598.000,352.372 621.000,312.535 667.000,312.535" fill="none" stroke="#4B0082" stroke-width="2.0" opacity="0.1"/>
<polygon points="690.000,432.046 667.000,471.883 621.000,471.883 598.000,432.046 621.000,392.209 667.000,392.209" fill="none" stroke="#4B0082" stroke-width="2.0" opacity="0.1"/>
<polygon points="690.000,511.720 667.000,551.558 621.000,551.558 598.000,511.720 621.000,471.883 667.000,471.883" fill="none" stroke="#4B0082" stroke-width="2.0" opacity="0.1"/>
<polygon points="690.000,591.395 667.000,631.232 621.000,631.232 598.000,591.395 621.000,551.558 667.000,551.558" fill="none" stroke="#4B0082" stroke-width="2.0" opacity="0.1"/>
<polygon points="690.000,671.069 667.000,710.906 621.000,710.906 598.000,671.069 621.000,631.232 667.000,631.232" fill="none" stroke="#4B0082" stroke-width="2.0" opacity="0.1"/>
<polygon points="690.000,750.743 667.000,790.581 621.000,790.581 598.000,750.743 621.000,710.906 667.000,710.906" fill="none" stroke="#4B0082" stroke-width="2.0" opacity="0.1"/>
<polygon points="690.000,830.418 667.000,870.255 621.000,870.255 598.000,830.418 621.000,790.581 667.000,790.581" fill="none" stroke="#4B0082" stroke-width="2.0" opacity="0.1"/>
<polygon points="690.000,910.092 667.000,949.929 621.000,949.929 598.000,910.092 621.000,870.255 667.000,870.255" fill="none" stroke="#4B0082" stroke-width="2.0" opacity="0.1"/>
<polygon points="759.000,-6.163 736.000,33.674 690.000,33.674 667.000,-6.163 690.000,-46.000 736.000,-46.000" fill="none" stroke="#4B0082" stroke-width="2.0" opacity="0.1"/>
<polygon points="759.000,73.512 736.000,113.349 690.000,113.349 667.000,73.512 690.000,33.674 736.000,33.674" fill="none" stroke="#4B0082" stroke-width="2.0" opacity="0.1"/>
<polygon points="759.000,153.186 736.000,193.023 690.000,193.023 667.000,153.186 690.000,113.349 736.000,113.349" fill="none" stroke="#4B0082" stroke-width="2.0" opacity="0.1"/>
<polygon points="759.000,232.860 736.000,272.697 690.000,272.697 667.000,232.860 690.000,193.023 736.000,193.023" fill="none" stroke="#4B0082" stroke-width="2.0" opacity="0.1"/>
<polygon points="759.000,312.535 736.000,352.372 690.000,352.372 667.000,312.535 690.000,272.697 736.000,272.697" fill="none" stroke="#4B0082" stroke-width="2.0" opacity="0.1"/>
<polygon points="759.000,392.209 736.000,432.046 690.000,432.046 667.000,392.209 690.000,352.372 736.000,352.372" fill="none" stroke="#4B0082" stroke-width="2.0" opacity="0.1"/>
<polygon points="759.000,471.883 736.000,511.720 690.000,511.720 667.000,471.883 690.000,432.046 736.000,432.046" fill="none" stroke="#4B0082" stroke-width="2.0" opacity="0.1"/>
<polygon points="759.000,551.558 736.000,591.395 690.000,591.395 667.000,551.558 690.000,511.720 736.000,511.720" fill="none" stroke="#4B0082" stroke-width="2.0" opacity="0.1"/>
<polygon points="759.000,631.232 736.000,671.069 690.000,671.069 667.000,631.232 690.000,591.395 736.000,591.395" fill="none" stroke="#4B0082" stroke-width="2.0" opacity="0.1"/>
<polygon points="759.000,710.906 736.000,750.743 690.000,750.743 667.000,710.906 690.000,671.069 736.000,671.069" fill="none" stroke="#4B0082" stroke-width="2.0" opacity="0.1"/>
<polygon points="759.000,790.581 736.000,830.418 690.000,830.418 667.000,790.581 690.000,750.743 736.000,750.743" fill="none" stroke="#4B0082" stroke-width="2.0" opacity="0.1"/>
<polygon points="759.000,870.255 736.000,910.092 690.000,910.092 667.000,870.255 690.000,830.418 736.000,830.418" fill="none" stroke="#4B0082" stroke-width="2.0" opacity="0.1"/>
<polygon points="759.000,949.929 736.000,989.766 690.000,989.766 667.000,949.929 690.000,910.092 736.000,910.092" fill="none" stroke="#4B0082" stroke-width="2.0" opacity="0.1"/>
<polygon points="828.000,-46.000 805.000,-6.163 759.000,-6.163 736.000,-46.000 759.000,-85.837 805.000,-85.837" fill="none" stroke="#4B0082" stroke-width="2.0" opacity="0.1"/>
<polygon points="828.000,33.674 805.000,73.512 759.000,73.512 736.000,33.674 759.000,-6.163 805.000,-6.163" fill="none" stroke="#4B0082" stroke-width="2.0" opacity="0.1"/>
<polygon points="828.000,113.349 805.000,153.186 759.000,153.186 736.000,113.349 759.000,73.512 805.000,73.512" fill="none" stroke="#4B0082" stroke-width="2.0" opacity="0.1"/>
<polygon points="828.000,193.023 805.000,232.860 759.000,232.860 736.000,193.023 759.000,153.186 805.000,153.186" fill="none" stroke="#4B0082" stroke-width="2.0" opacity="0.1"/>
<polygon points="828.000,272.697 805.000,312.535 759.000,312.535 736.000,272.697 759.000,232.860 805.000,232.860" fill="none" stroke="#4B0082" stroke-width="2.0" opacity="0.1"/>
<polygon points="828.000,352.372 805.000,392.209 759.000,392.209 736.000,352.372 759.000,312.535 805.000,312.535" fill="none" stroke="#4B0082" stroke-width="2.0" opacity="0.1"/>
<polygon points="828.000,432.046 805.000,471.883 759.000,471.883 736.000,432.046 759.000,392.209 805.000,392.209" fill="none" stroke="#4B0082" stroke-width="2.0" opacity="0.1"/>
<polygon points="828.000,511.720 805.000,551.558 759.000,551.558 736.000,511.720 759.000,471.883 805.000,471.883" fill="none" stroke="#4B0082" stroke-width="2.0" opacity="0.1"/>
<polygon points="828.000,591.395 805.000,631.232 759.000,631.232 736.000,591.395 759.000,551.558 805.000,551.558" fill="none" stroke="#4B0082" stroke-width="2.0" opacity="0.1"/>
<polygon points="828.000,671.069 805.000,710.906 759.000,710.906 736.000,671.069 759.000,631.232 805.000,631.232" fill="none" stroke="#4B0082" stroke-width="2.0" opacity="0.1"/>
<polygon points="828.000,750.743 805.000,790.581 759.000,790.581 736.000,750.743 759.000,710.906 805.000,710.906" fill="none" stroke="#4B0082" stroke-width="2.0" opacity="0.1"/>
<polygon points="828.000,830.418 805.000,870.255 759.000,870.255 736.000,830.418 759.000,790.581 805.000,790.581" fill="none" stroke="#4B0082" stroke-width="2.0" opacity="0.1"/>
<polygon points="828.000,910.092 805.000,949.929 759.000,949.929 736.000,910.092 759.000,870.255 805.000,870.255" fill="none" stroke="#4B0082" stroke-width="2.0" opacity="0.1"/>
<polygon points="897.000,-6.163 874.000,33.674 828.000,33.674 805.000,-6.163 828.000,-46.000 874.000,-46.000" fill="none" stroke="#4B0082" stroke-width="2.0" opacity="0.1"/>
<polygon points="897.000,73.512 874.000,113.349 828.000,113.349 805.000,73.512 828.000,33.674 874.000,33.674" fill="none" stroke="#4B0082" stroke-width="2.0" opacity="0.1"/>
<polygon points="897.000,153.186 874.000,193.023 828.000,193.023 805.000,153.186 828.000,113.349 874.000,113.349" fill="none" stroke="#4B0082" stroke-width="2.0" opacity="0.1"/>
<polygon points="897.000,232.860 874.000,272.697 828.000,272.697 805.000,232.860 828.000,193.023 874.000,193.023" fill="none" stroke="#4B0082" stroke-width="2.0" opacity="0.1"/>
<polygon points="897.000,312.535 874.000,352.372 828.000,352.372 805.000,312.535 828.000,272.697 874.000,272.697" fill="none" stroke="#4B0082" stroke-width="2.0" opacity="0.1"/>
<polygon points="897.000,392.209 874.000,432.046 828.000,432.046 805.000,392.209 828.000,352.372 874.000,352.372" fill="none" stroke="#4B0082" stroke-width="2.0" opacity="0.1"/>
<polygon points="897.000,471.883 874.000,511.720 828.000,511.720 805.000,471.883 828.000,432.046 874.000,432.046" fill="none" stroke="#4B0082" stroke-width="2.0" opacity="0.1"/>
<polygon points="897.000,551.558 874.000,591.395 828.000,591.395 805.000,551.558 828.000,511.720 874.000,511.720" fill="none" stroke="#4B0082" stroke-width="2.0" opacity="0.1"/>
<polygon points="897.000,631.232 874.000,671.069 828.000,671.069 805.000,631.232 828.000,591.395 874.000,591.395" fill="none" stroke="#4B0082" stroke-width="2.0" opacity="0.1"/>
<polygon points="897.000,710.906 874.000,750.743 828.000,750.743 805.000,710.906 828.000,671.069 874.000,671.069" fill="none" stroke="#4B0082" stroke-width="2.0" opacity="0.1"/>
<polygon points="897.000,790.581 874.000,830.418 828.000,830.418 805.000,790.581 828.000,750.743 874.000,750.743" fill="none" stroke="#4B0082" stroke-width="2.0" opacity="0.1"/>
<polygon points="897.000,870.255 874.000,910.092 828.000,910.092 805.000,870.255 828.000,830.418 874.000,830.418" fill="none" stroke="#4B0082" stroke-width="2.0" opacity="0.1"/>
<polygon points="897.000,949.929 874.000,989.766 828.000,989.766 805.000,949.929 828.000,910.092 874.000,910.092" fill="none" stroke="#4B0082" stroke-width="2.0" opacity="0.1"/>
<polygon points="966.000,-46.000 943.000,-6.163 897.000,-6.163 874.000,-46.000 897.000,-85.837 943.000,-85.837" fill="none" stroke="#4B0082" stroke-width="2.0" opacity="0.1"/>
<polygon points="966.000,33.674 943.000,73.512 897.000,73.512 874.000,33.674 897.000,-6.163 943.000,-6.163" fill="none" stroke="#4B0082" stroke-width="2.0" opacity="0.1"/>
<polygon points="966.000,113.349 943.000,153.186 897.000,153.186 874.000,113.349 897.000,73.512 943.000,73.512" fill="none" stroke="#4B0082" stroke-width="2.0" opacity="0.1"/>
<polygon points="966.000,193.023 943.000,232.860 897.000,232.860 874.000,193.023 897.000,153.186 943.000,153.186" fill="none" stroke="#4B0082" stroke-width="2.0" opacity="0.1"/>
<polygon points="966.000,272.697 943.000,312.535 897.000,312.535 874.000,272.697 897.000,232.860 943.000,232.860" fill="none" stroke="#4B0082" stroke-width="2.0" opacity="0.1"/>
<polygon points="966.000,352.372 943.000,392.209 897.000,392.209 874.000,352.372 897.000,312.535 943.000,312.535" fill="none" stroke="#4B0082" stroke-width="2.0" opacity="0.1"/>
<polygon points="966.000,432.046 943.000,471.883 897.000,471.883 874.000,432.046 897.000,392.209 943.000,392.209" fill="none" stroke="#4B0082" stroke-width="2.0" opacity="0.1"/>
<polygon points="966.000,511.720 943.000,551.558 897.000,551.558 874.000,511.720 897.000,471.883 943.000,471.883" fill="none" stroke="#4B0082" stroke-width="2.0" opacity="0.1"/>
<polygon points="966.000,591.395 943.000,631.232 897.000,631.232 874.000,591.395 897.000,551.558 943.000,551.558" fill="none" stroke="#4B0082" stroke-width="2.0" opacity="0.1"/>
<polygon points="966.000,671.069 943.000,710.906 897.000,710.906 874.000,671.069 897.000,631.232 943.000,631.232" fill="none" stroke="#4B0082" stroke-width="2.0" opacity="0.1"/>
<polygon points="966.000,750.743 943.000,790.581 897.000,790.581 874.000,750.743 897.000,710.906 943.000,710.906" fill="none" stroke="#4B0082" stroke-width="2.0" opacity="0.1"/>
<polygon points="966.000,830.418 943.000,870.255 897.000,870.255 874.000,830.418 897.000,790.581 943.000,790.581" fill="none" stroke="#4B0082" stroke-width="2.0" opacity="0.1"/>
<polygon points="966.000,910.092 943.000,949.929 897.000,949.929 874.000,910.092 897.000,870.255 943.000,870.255" fill="none" stroke="#4B0082" stroke-width="2.0" opacity="0.1"/>
<polygon points="1035.000,-6.163 1012.000,33.674 966.000,33.674 943.000,-6.163 966.000,-46.000 1012.000,-46.000" fill="none" stroke="#4B0082" stroke-width="2.0" opacity="0.1"/>
<polygon points="1035.000,73.512 1012.000,113.349 966.000,113.349 943.000,73.512 966.000,33.674 1012.000,33.674" fill="none" stroke="#4B0082" stroke-width="2.0" opacity="0.1"/>
<polygon points="1035.000,153.186 1012.000,193.023 966.000,193.023 943.000,153.186 966.000,113.349 1012.000,113.349" fill="none" stroke="#4B0082" stroke-width="2.0" opacity="0.1"/>
<polygon points="1035.000,232.860 1012.000,272.697 966.000,272.697 943.000,232.860 966.000,193.023 1012.000,193.023" fill="none" stroke="#4B0082" stroke-width="2.0" opacity="0.1"/>
<polygon points="1035.000,312.535 1012.000,352.372 966.000,352.372 943.000,312.535 966.000,272.697 1012.000,272.697" fill="none" stroke="#4B0082" stroke-width="2.0" opacity="0.1"/>
<polygon points="1035.000,392.209 1012.000,432.046 966.000,432.046 943.000,392.209 966.000,352.372 1012.000,352.372" fill="none" stroke="#4B0082" stroke-width="2.0" opacity="0.1"/>
<polygon points="1035.000,471.883 1012.000,511.720 966.000,511.720 943.000,471.883 966.000,432.046 1012.000,432.046" fill="none" stroke="#4B0082" stroke-width="2.0" opacity="0.1"/>
<polygon points="1035.000,551.558 1012.000,591.395 966.000,591.395 943.000,551.558 966.000,511.720 1012.000,511.720" fill="none" stroke="#4B0082" stroke-width="2.0" opacity="0.1"/>
<polygon points="1035.000,631.232 1012.000,671.069 966.000,671.069 943.000,631.232 966.000,591.395 1012.000,591.395" fill="none" stroke="#4B0082" stroke-width="2.0" opacity="0.1"/>
<polygon points="1035.000,710.906 1012.000,750.743 966.000,750.743 943.000,710.906 966.000,671.069 1012.000,671.069" fill="none" stroke="#4B0082" stroke-width="2.0" opacity="0.1"/>
<polygon points="1035.000,790.581 1012.000,830.418 966.000,830.418 943.000,790.581 966.000,750.743 1012.000,750.743" fill="none" stroke="#4B0082" stroke-width="2.0" opacity="0.1"/>
<polygon points="1035.000,870.255 1012.000,910.092 966.000,910.092 943.000,870.255 966.000,830.418 1012.000,830.418" fill="none" stroke="#4B0082" stroke-width="2.0" opacity="0.1"/>
<polygon points="1035.000,949.929 1012.000,989.766 966.000,989.766 943.000,949.929 966.000,910.092 1012.000,910.092" fill="none" stroke="#4B0082" stroke-width="2.0" opacity="0.1"/>
<polygon points="1104.000,-46.000 1081.000,-6.163 1035.000,-6.163 1012.000,-46.000 1035.000,-85.837 1081.000,-85.837" fill="none" stroke="#4B0082" stroke-width="2.0" opacity="0.1"/>
<polygon points="1104.000,33.674 1081.000,73.512 1035.000,73.512 1012.000,33.674 1035.000,-6.163 1081.000,-6.163" fill="none" stroke="#4B0082" stroke-width="2.0" opacity="0.1"/>
<polygon points="1104.000,113.349 1081.000,153.186 1035.000,153.186 1012.000,113.349 1035.000,73.512 1081.000,73.512" fill="none" stroke="#4B0082" stroke-width="2.0" opacity="0.1"/>
<polygon points="1104.000,193.023 1081.000,232.860 1035.000,232.860 1012.000,193.023 1035.000,153.186 1081.000,153.186" fill="none" stroke="#4B0082" stroke-width="2.0" opacity="0.1"/>
<polygon points="1104.000,272.697 1081.000,312.535 1035.000,312.535 1012.000,272.697 1035.000,232.860 1081.000,232.860" fill="none" stroke="#4B0082" stroke-width="2.0" opacity="0.1"/>
<polygon points="1104.000,352.372 1081.000,392.209 1035.000,392.209 1012.000,352.372 1035.000,312.535 1081.000,312.535" fill="none" stroke="#4B0082" stroke-width="2.0" opacity="0.1"/>
<polygon points="1104.000,432.046 1081.000,471.883 1035.000,471.883 1012.000,432.046 1035.000,392.209 1081.000,392.209" fill="none" stroke="#4B0082" stroke-width="2.0" opacity="0.1"/>
<polygon points="1104.000,511.720 1081.000,551.558 1035.000,551.558 1012.000,511.720 1035.000,471.883 1081.000,471.883" fill="none" stroke="#4B0082" stroke-width="2.0" opacity="0.1"/>
<polygon points="1104.000,591.395 1081.000,631.232 1035.000,631.232 1012.000,591.395 1035.000,551.558 1081.000,551.558" fill="none" stroke="#4B0082" stroke-width="2.0" opacity="0.1"/>
<polygon points="1104.000,671.069 1081.000,710.906 1035.000,710.906 1012.000,671.069 1035.000,631.232 1081.000,631.232" fill="none" stroke="#4B0082" stroke-width="2.0" opacity="0.1"/>
<polygon points="1104.000,750.743 1081.000,790.581 1035.000,790.581 1012.000,750.743 1035.000,710.906 1081.000,710.906" fill="none" stroke="#4B0082" stroke-width="2.0" opacity="0.1"/>
<polygon points="1104.000,830.418 1081.000,870.255 1035.000,870.255 1012.000,830.418 1035.000,790.581 1081.000,790.581" fill="none" stroke="#4B0082" stroke-width="2.0" opacity="0.1"/>
<polygon points="1104.000,910.092 1081.000,949.929 1035.000,949.929 1012.000,910.092 1035.000,870.255 1081.000,870.255" fill="none" stroke="#4B0082" stroke-width="2.0" opacity="0.1"/>
<polygon points="1173.000,-6.163 1150.000,33.674 1104.000,33.674 1081.000,-6.163 1104.000,-46.000 1150.000,-46.000" fill="none" stroke="#4B0082" stroke-width="2.0" opacity="0.1"/>
<polygon points="1173.000,73.512 1150.000,113.349 1104.000,113.349 1081.000,73.512 1104.000,33.674 1150.000,33.674" fill="none" stroke="#4B0082" stroke-width="2.0" opacity="0.1"/>
<polygon points="1173.000,153.186 1150.000,193.023 1104.000,193.023 1081.000,153.186 1104.000,113.349 1150.000,113.349" fill="none" stroke="#4B0082" stroke-width="2.0" opacity="0.1"/>
<polygon points="1173.000,232.860 1150.000,272.697 1104.000,272.697 1081.000,232.860 1104.000,193.023 1150.000,193.023" fill="none" stroke="#4B0082" stroke-width="2.0" opacity="0.1"/>
<polygon points="1173.000,312.535 1150.000,352.372 1104.000,352.372 1081.000,312.535 1104.000,272.697 1150.000,272.697" fill="none" stroke="#4B0082" stroke-width="2.0" opacity="0.1"/>
<polygon points="1173.000,392.209 1150.000,432.046 1104.000,432.046 1081.000,392.209 1104.000,352.372 1150.000,352.372" fill="none" stroke="#4B0082" stroke-width="2.0" opacity="0.1"/>
<polygon points="1173.000,471.883 1150.000,511.720 1104.000,511.720 1081.000,471.883 1104.000,432.046 1150.000,432.046" fill="none" stroke="#4B0082" stroke-width="2.0" opacity="0.1"/>
<polygon points="1173.000,551.558 1150.000,591.395 1104.000,591.395 1081.000,551.558 1104.000,511.720 1150.000,511.720" fill="none" stroke="#4B0082" stroke-width="2.0" opacity="0.1"/>
<polygon points="1173.000,631.232 1150.000,671.069 1104.000,671.069 1081.000,631.232 1104.000,591.395 1150.000,591.395" fill="none" stroke="#4B0082" stroke-width="2.0" opacity="0.1"/>
<polygon points="1173.000,710.906 1150.000,750.743 1104.000,750.743 1081.000,710.906 1104.000,671.069 1150.000,671.069" fill="none" stroke="#4B0082" stroke-width="2.0" opacity="0.1"/>
<polygon points="1173.000,790.581 1150.000,830.418 1104.000,830.418 1081.000,790.581 1104.000,750.743 1150.000,750.743" fill="none" stroke="#4B0082" stroke-width="2.0" opacity="0.1"/>
<polygon points="1173.000,870.255 1150.000,910.092 1104.000,910.092 1081.000,870.255 1104.000,830.418 1150.000,830.418" fill="none" stroke="#4B0082" stroke-width="2.0" opacity="0.1"/>
<polygon points="1173.000,949.929 1150.000,989.766 1104.000,989.766 1081.000,949.929 1104.000,910.092 1150.000,910.092" fill="none" stroke="#4B0082" stroke-width="2.0" opacity="0.1"/>
<polygon points="1242.000,-46.000 1219.000,-6.163 1173.000,-6.163 1150.000,-46.000 1173.000,-85.837 1219.000,-85.837" fill="none" stroke="#4B0082" stroke-width="2.0" opacity="0.1"/>
<polygon points="1242.000,33.674 1219.000,73.512 1173.000,73.512 1150.000,33.674 1173.000,-6.163 1219.000,-6.163" fill="none" stroke="#4B0082" stroke-width="2.0" opacity="0.1"/>
<polygon points="1242.000,113.349 1219.000,153.186 1173.000,153.186 1150.000,113.349 1173.000,73.512 1219.000,73.512" fill="none" stroke="#4B0082" stroke-width="2.0" opacity="0.1"/>
<polygon points="1242.000,193.023 1219.000,232.860 1173.000,232.860 1150.000,193.023 1173.000,153.186 1219.000,153.186" fill="none" stroke="#4B0082" stroke-width="2.0" opacity="0.1"/>
<polygon points="1242.000,272.697 1219.000,312.535 1173.000,312.535 1150.000,272.697 1173.000,232.860 1219.000,232.860" fill="none" stroke="#4B0082" stroke-width="2.0" opacity="0.1"/>
<polygon points="1242.000,352.372 1219.000,392.209 1173.000,392.209 1150.000,352.372 1173.000,312.535 1219.000,312.535" fill="none" stroke="#4B0082" stroke-width="2.0" opacity="0.1"/>
<polygon points="1242.000,432.046 1219.000,471.883 1173.000,471.883 1150.000,432.046 1173.000,392.209 1219.000,392.209" fill="none" stroke="#4B0082" stroke-width="2.0" opacity="0.1"/>
<polygon points="1242.000,511.720 1219.000,551.558 1173.000,551.558 1150.000,511.720 1173.000,471.883 1219.000,471.883" fill="none" stroke="#4B0082" stroke-width="2.0" opacity="0.1"/>
<polygon points="1242.000,591.395 1219.000,631.232 1173.000,631.232 1150.000,591.395 1173.000,551.558 1219.000,551.558" fill="none" stroke="#4B0082" stroke-width="2.0" opacity="0.1"/>
<polygon points="1242.000,671.069 1219.000,710.906 1173.000,710.906 1150.000,671.069 1173.000,631.232 1219.000,631.232" fill="none" stroke="#4B0082" stroke-width="2.0" opacity="0.1"/>
<polygon points="1242.000,750.743 1219.000,790.581 1173.000,790.581 1150.000,750.743 1173.000,710.906 1219.000,710.906" fill="none" stroke="#4B0082" stroke-width="2.0" opacity="0.1"/>
<polygon points="1242.000,830.418 1219.000,870.255 1173.000,870.255 1150.000,830.418 1173.000,790.581 1219.000,790.581" fill="none" stroke="#4B0082" stroke-width="2.0" opacity="0.1"/>
<polygon points="1242.000,910.092 1219.000,949.929 1173.000,949.929 1150.000,910.092 1173.000,870.255 1219.000,870.255" fill="none" stroke="#4B0082" stroke-width="2.0" opacity="0.1"/>
<polygon points="1311.000,-6.163 1288.000,33.674 1242.000,33.674 1219.000,-6.163 1242.000,-46.000 1288.000,-46.000" fill="none" stroke="#4B0082" stroke-width="2.0" opacity="0.1"/>
<polygon points="1311.000,73.512 1288.000,113.349 1242.000,113.349 1219.000,73.512 1242.000,33.674 1288.000,33.674" fill="none" stroke="#4B0082" stroke-width="2.0" opacity="0.1"/>
<polygon points="1311.000,153.186 1288.000,193.023 1242.000,193.023 1219.000,153.186 1242.000,113.349 1288.000,113.349" fill="none" stroke="#4B0082" stroke-width="2.0" opacity="0.1"/>
<polygon points="1311.000,232.860 1288.000,272.697 1242.000,272.697 1219.000,232.860 1242.000,193.023 1288.000,193.023" fill="none" stroke="#4B0082" stroke-width="2.0" opacity="0.1"/>
<polygon points="1311.000,312.535 1288.000,352.372 1242.000,352.372 1219.000,312.535 1242.000,272.697 1288.000,272.697" fill="none" stroke="#4B0082" stroke-width="2.0" opacity="0.1"/>
<polygon points="1311.000,392.209 1288.000,432.046 1242.000,432.046 1219.000,392.209 1242.000,352.372 1288.000,352.372" fill="none" stroke="#4B0082" stroke-width="2.0" opacity="0.1"/>
<polygon points="1311.000,471.883 1288.000,511.720 1242.000,511.720 1219.000,471.883 1242.000,432.046 1288.000,432.046" fill="none" stroke="#4B0082" stroke-width="2.0" opacity="0.1"/>
<polygon points="1311.000,551.558 1288.000,591.395 1242.000,591.395 1219.000,551.558 1242.000,511.720 1288.000,511.720" fill="none" stroke="#4B0082" stroke-width="2.0" opacity="0.1"/>
<polygon points="1311.000,631.232 1288.000,671.069 1242.000,671.069 1219.000,631.232 1242.000,591.395 1288.000,591.395" fill="none" stroke="#4B0082" stroke-width="2.0" opacity="0.1"/>
<polygon points="1311.000,710.906 1288.000,750.743 1242.000,750.743 1219.000,710.906 1242.000,671.069 1288.000,671.069" fill="none" stroke="#4B0082" stroke-width="2.0" opacity="0.1"/>
<polygon points="1311.000,790.581 1288.000,830.418 1242.000,830.418 1219.000,790.581 1242.000,750.743 1288.000,750.743" fill="none" stroke="#4B0082" stroke-width="2.0" opacity="0.1"/>
<polygon points="1311.000,870.255 1288.000,910.092 1242.000,910.092 1219.000,870.255 1242.000,830.418 1288.000,830.418" fill="none" stroke="#4B0082" stroke-width="2.0" opacity="0.1"/>
<polygon points="1311.000,949.929 1288.000,989.766 1242.000,989.766 1219.000,949.929 1242.000,910.092 1288.000,910.092" fill="none" stroke="#4B0082" stroke-width="2.0" opacity="0.1"/>
<polygon points="1380.000,-46.000 1357.000,-6.163 1311.000,-6.163 1288.000,-46.000 1311.000,-85.837 1357.000,-85.837" fill="none" stroke="#4B0082" stroke-width="2.0" opacity="0.1"/>
<polygon points="1380.000,33.674 1357.000,73.512 1311.000,73.512 1288.000,33.674 1311.000,-6.163 1357.000,-6.163" fill="none" stroke="#4B0082" stroke-width="2.0" opacity="0.1"/>
<polygon points="1380.000,113.349 1357.000,153.186 1311.000,153.186 1288.000,113.349 1311.000,73.512 1357.000,73.512" fill="none" stroke="#4B0082" stroke-width="2.0" opacity="0.1"/>
<polygon points="1380.000,193.023 1357.000,232.860 1311.000,232.860 1288.000,193.023 1311.000,153.186 1357.000,153.186" fill="none" stroke="#4B0082" stroke-width="2.0" opacity="0.1"/>
<polygon points="1380.000,272.697 1357.000,312.535 1311.000,312.535 1288.000,272.697 1311.000,232.860 1357.000,232.860" fill="none" stroke="#4B0082" stroke-width="2.0" opacity="0.1"/>
<polygon points="1380.000,352.372 1357.000,392.209 1311.000,392.209 1288.000,352.372 1311.000,312.535 1357.000,312.535" fill="none" stroke="#4B0082" stroke-width="2.0" opacity="0.1"/>
<polygon points="1380.000,432.046 1357.000,471.883 1311.000,471.883 1288.000,432.046 1311.000,392.209 1357.000,392.209" fill="none" stroke="#4B0082" stroke-width="2.0" opacity="0.1"/>
<polygon points="1380.000,511.720 1357.000,551.558 1311.000,551.558 1288.000,511.720 1311.000,471.883 1357.000,471.883" fill="none" stroke="#4B0082" stroke-width="2.0" opacity="0.1"/>
<polygon points="1380.000,591.395 1357.000,631.232 1311.000,631.232 1288.000,591.395 1311.000,551.558 1357.000,551.558" fill="none" stroke="#4B0082" stroke-width="2.0" opacity="0.1"/>
<polygon points="1380.000,671.069 1357.000,710.906 1311.000,710.906 1288.000,671.069 1311.000,631.232 1357.000,631.232" fill="none" stroke="#4B0082" stroke-width="2.0" opacity="0.1"/>
<polygon points="1380.000,750.743 1357.000,790.581 1311.000,790.581 1288.000,750.743 1311.000,710.906 1357.000,710.906" fill="none" stroke="#4B0082" stroke-width="2.0" opacity="0.1"/>
<polygon points="1380.000,830.418 1357.000,870.255 1311.000,870.255 1288.000,830.418 1311.000,790.581 1357.000,790.581" fill="none" stroke="#4B0082" stroke-width="2.0" opacity="0.1"/>
<polygon points="1380.000,910.092 1357.000,949.929 1311.000,949.929 1288.000,910.092 1311.000,870.255 1357.000,870.255" fill="none" stroke="#4B0082" stroke-width="2.0" opacity="0.1"/>
<polygon points="1449.000,-6.163 1426.000,33.674 1380.000,33.674 1357.000,-6.163 1380.000,-46.000 1426.000,-46.000" fill="none" stroke="#4B0082" stroke-width="2.0" opacity="0.1"/>
<polygon points="1449.000,73.512 1426.000,113.349 1380.000,113.349 1357.000,73.512 1380.000,33.674 1426.000,33.674" fill="none" stroke="#4B0082" stroke-width="2.0" opacity="0.1"/>
<polygon points="1449.000,153.186 1426.000,193.023 1380.000,193.023 1357.000,153.186 1380.000,113.349 1426.000,113.349" fill="none" stroke="#4B0082" stroke-width="2.0" opacity="0.1"/>
<polygon points="1449.000,232.860 1426.000,272.697 1380.000,272.697 1357.000,232.860 1380.000,193.023 1426.000,193.023" fill="none" stroke="#4B0082" stroke-width="2.0" opacity="0.1"/>
<polygon points="1449.000,312.535 1426.000,352.372 1380.000,352.372 1357.000,312.535 1380.000,272.697 1426.000,272.697" fill="none" stroke="#4B0082" stroke-width="2.0" opacity="0.1"/>
<polygon points="1449.000,392.209 1426.000,432.046 1380.000,432.046 1357.000,392.209 1380.000,352.372 1426.000,352.372" fill="none" stroke="#4B0082" stroke-width="2.0" opacity="0.1"/>
<polygon points="1449.000,471.883 1426.000,511.720 1380.000,511.720 1357.000,471.883 1380.000,432.046 1426.000,432.046" fill="none" stroke="#4B0082" stroke-width="2.0" opacity="0.1"/>
<polygon points="1449.000,551.558 1426.000,591.395 1380.000,591.395 1357.000,551.558 1380.000,511.720 1426.000,511.720" fill="none" stroke="#4B0082" stroke-width="2.0" opacity="0.1"/>
<polygon points="1449.000,631.232 1426.000,671.069 1380.000,671.069 1357.000,631.232 1380.000,591.395 1426.000,591.395" fill="none" stroke="#4B0082" stroke-width="2.0" opacity="0.1"/>
<polygon points="1449.000,710.906 1426.000,750.743 1380.000,750.743 1357.000,710.906 1380.000,671.069 1426.000,671.069" fill="none" stroke="#4B0082" stroke-width="2.0" opacity="0.1"/>
<polygon points="1449.000,790.581 1426.000,830.418 1380.000,830.418 1357.000,790.581 1380.000,750.743 1426.000,750.743" fill="none" stroke="#4B0082" stroke-width="2.0" opacity="0.1"/>
<polygon points="1449.000,870.255 1426.000,910.092 1380.000,910.092 1357.000,870.255 1380.000,830.418 1426.000,830.418" fill="none" stroke="#4B0082" stroke-width="2.0" opacity="0.1"/>
<polygon points="1449.000,949.929 1426.000,989.766 1380.000,989.766 1357.000,949.929 1380.000,910.092 1426.000,910.092" fill="none" stroke="#4B0082" stroke-width="2.0" opacity="0.1"/>
<polygon points="1518.000,-46.000 1495.000,-6.163 1449.000,-6.163 1426.000,-46.000 1449.000,-85.837 1495.000,-85.837" fill="none" stroke="#4B0082" stroke-width="2.0" opacity="0.1"/>
<polygon points="1518.000,33.674 1495.000,73.512 1449.000,73.512 1426.000,33.674 1449.000,-6.163 1495.000,-6.163" fill="none" stroke="#4B0082" stroke-width="2.0" opacity="0.1"/>
<polygon points="1518.000,113.349 1495.000,153.186 1449.000,153.186 1426.000,113.349 1449.000,73.512 1495.000,73.512" fill="none" stroke="#4B0082" stroke-width="2.0" opacity="0.1"/>
<polygon points="1518.000,193.023 1495.000,232.860 1449.000,232.860 1426.000,193.023 1449.000,153.186 1495.000,153.186" fill="none" stroke="#4B0082" stroke-width="2.0" opacity="0.1"/>
<polygon points="1518.000,272.697 1495.000,312.535 1449.000,312.535 1426.000,272.697 1449.000,232.860 1495.000,232.860" fill="none" stroke="#4B0082" stroke-width="2.0" opacity="0.1"/>
<polygon points="1518.000,352.372 1495.000,392.209 1449.000,392.209 1426.000,352.372 1449.000,312.535 1495.000,312.535" fill="none" stroke="#4B0082" stroke-width="2.0" opacity="0.1"/>
<polygon points="1518.000,432.046 1495.000,471.883 1449.000,471.883 1426.000,432.046 1449.000,392.209 1495.000,392.209" fill="none" stroke="#4B0082" stroke-width="2.0" opacity="0.1"/>
<polygon points="1518.000,511.720 1495.000,551.558 1449.000,551.558 1426.000,511.720 1449.000,471.883 1495.000,471.883" fill="none" stroke="#4B0082" stroke-width="2.0" opacity="0.1"/>
<polygon points="1518.000,591.395 1495.000,631.232 1449.000,631.232 1426.000,591.395 1449.000,551.558 1495.000,551.558" fill="none" stroke="#4B0082" stroke-width="2.0" opacity="0.1"/>
<polygon points="1518.000,671.069 1495.000,710.906 1449.000,710.906 1426.000,671.069 1449.000,631.232 1495.000,631.232" fill="none" stroke="#4B0082" stroke-width="2.0" opacity="0.1"/>
<polygon points="1518.000,750.743 1495.000,790.581 1449.000,790.581 1426.000,750.743 1449.000,710.906 1495.000,710.906" fill="none" stroke="#4B0082" stroke-width="2.0" opacity="0.1"/>
<polygon points="1518.000,830.418 1495.000,870.255 1449.000,870.255 1426.000,830.418 1449.000,790.581 1495.000,790.581" fill="none" stroke="#4B0082" stroke-width="2.0" opacity="0.1"/>
<polygon points="1518.000,910.092 1495.000,949.929 1449.000,949.929 1426.000,910.092 1449.000,870.255 1495.000,870.255" fill="none" stroke="#4B0082" stroke-width="2.0" opacity="0.1"/>
<polygon points="1587.000,-6.163 1564.000,33.674 1518.000,33.674 1495.000,-6.163 1518.000,-46.000 1564.000,-46.000" fill="none" stroke="#4B0082" stroke-width="2.0" opacity="0.1"/>
<polygon points="1587.000,73.512 1564.000,113.349 1518.000,113.349 1495.000,73.512 1518.000,33.674 1564.000,33.674" fill="none" stroke="#4B0082" stroke-width="2.0" opacity="0.1"/>
<polygon points="1587.000,153.186 1564.000,193.023 1518.000,193.023 1495.000,153.186 1518.000,113.349 1564.000,113.349" fill="none" stroke="#4B0082" stroke-width="2.0" opacity="0.1"/>
<polygon points="1587.000,232.860 1564.000,272.697 1518.000,272.697 1495.000,232.860 1518.000,193.023 1564.000,193.023" fill="none" stroke="#4B0082" stroke-width="2.0" opacity="0.1"/>
<polygon points="1587.000,312.535 1564.000,352.372 1518.000,352.372 1495.000,312.535 1518.000,272.697 1564.000,272.697" fill="none" stroke="#4B0082" stroke-width="2.0" opacity="0.1"/>
<polygon points="1587.000,392.209 1564.000,432.046 1518.000,432.046 1495.000,392.209 1518.000,352.372 1564.000,352.372" fill="none" stroke="#4B0082" stroke-width="2.0" opacity="0.1"/>
<polygon points="1587.000,471.883 1564.000,511.720 1518.000,511.720 1495.000,471.883 1518.000,432.046 1564.000,432.046" fill="none" stroke="#4B0082" stroke-width="2.0" opacity="0.1"/>
<polygon points="1587.000,551.558 1564.000,591.395 1518.000,591.395 1495.000,551.558 1518.000,511.720 1564.000,511.720" fill="none" stroke="#4B0082" stroke-width="2.0" opacity="0.1"/>
<polygon points="1587.000,631.232 1564.000,671.069 1518.000,671.069 1495.000,631.232 1518.000,591.395 1564.000,591.395" fill="none" stroke="#4B0082" stroke-width="2.0" opacity="0.1"/>
<polygon points="1587.000,710.906 1564.000,750.743 1518.000,750.743 1495.000,710.906 1518.000,671.069 1564.000,671.069" fill="none" stroke="#4B0082" stroke-width="2.0" opacity="0.1"/>
<polygon points="1587.000,790.581 1564.000,830.418 1518.000,830.418 1495.000,790.581 1518.000,750.743 1564.000,750.743" fill="none" stroke="#4B0082" stroke-width="2.0" opacity="0.1"/>
<polygon points="1587.000,870.255 1564.000,910.092 1518.000,910.092 1495.000,870.255 1518.000,830.418 1564.000,830.418" fill="none" stroke="#4B0082" stroke-width="2.0" opacity="0.1"/>
<polygon points="1587.000,949.929 1564.000,989.766 1518.000,989.766 1495.000,949.929 1518.000,910.092 1564.000,910.092" fill="none" stroke="#4B0082" stroke-width="2.0" opacity="0.1"/>
<polygon points="1656.000,-46.000 1633.000,-6.163 1587.000,-6.163 1564.000,-46.000 1587.000,-85.837 1633.000,-85.837" fill="none" stroke="#4B0082" stroke-width="2.0" opacity="0.1"/>
<polygon points="1656.000,33.674 1633.000,73.512 1587.000,73.512 1564.000,33.674 1587.000,-6.163 1633.000,-6.163" fill="none" stroke="#4B0082" stroke-width="2.0" opacity="0.1"/>
<polygon points="1656.000,113.349 1633.000,153.186 1587.000,153.186 1564.000,113.349 1587.000,73.512 1633.000,73.512" fill="none" stroke="#4B0082" stroke-width="2.0" opacity="0.1"/>
<polygon points="1656.000,193.023 1633.000,232.860 1587.000,232.860 1564.000,193.023 1587.000,153.186 1633.000,153.186" fill="none" stroke="#4B0082" stroke-width="2.0" opacity="0.1"/>
<polygon points="1656.000,272.697 1633.000,312.535 1587.000,312.535 1564.000,272.697 1587.000,232.860 1633.000,232.860" fill="none" stroke="#4B0082" stroke-width="2.0" opacity="0.1"/>
<polygon points="1656.000,352.372 1633.000,392.209 1587.000,392.209 1564.000,352.372 1587.000,312.535 1633.000,312.535" fill="none" stroke="#4B0082" stroke-width="2.0" opacity="0.1"/>
<polygon points="1656.000,432.046 1633.000,471.883 1587.000,471.883 1564.000,432.046 1587.000,392.209 1633.000,392.209" fill="none" stroke="#4B0082" stroke-width="2.0" opacity="0.1"/>
<polygon points="1656.000,511.720 1633.000,551.558 1587.000,551.558 1564.000,511.720 1587.000,471.883 1633.000,471.883" fill="none" stroke="#4B0082" stroke-width="2.0" opacity="0.1"/>
<polygon points="1656.000,591.395 1633.000,631.232 1587.000,631.232 1564.000,591.395 1587.000,551.558 1633.000,551.558" fill="none" stroke="#4B0082" stroke-width="2.0" opacity="0.1"/>
<polygon points="1656.000,671.069 1633.000,710.906 1587.000,710.906 1564.000,671.069 1587.000,631.232 1633.000,631.232" fill="none" stroke="#4B0082" stroke-width="2.0" opacity="0.1"/>
<polygon points="1656.000,750.743 1633.000,790.581 1587.000,790.581 1564.000,750.743 1587.000,710.906 1633.000,710.906" fill="none" stroke="#4B0082" stroke-width="2.0" opacity="0.1"/>
<polygon points="1656.000,830.418 1633.000,870.255 1587.000,870.255 1564.000,830.418 1587.000,790.581 1633.000,790.581" fill="none" stroke="#4B0082" stroke-width="2.0" opacity="0.1"/>
<polygon points="1656.000,910.092 1633.000,949.929 1587.000,949.929 1564.000,910.092 1587.000,870.255 1633.000,870.255" fill="none" stroke="#4B0082" stroke-width="2.0" opacity="0.1"/></svg>
