<svg xmlns="http://www.w3.org/2000/svg" viewBox="0 0 200 200" width="200" height="200"><polygon points="188.828,131.655 171.828,161.100 137.828,161.100 120.828,131.655 137.828,102.210 171.828,102.210" fill="#00B0FF" stroke="#00B0FF" stroke-width="3.74" stroke-linejoin="round"/>
<polygon points="134.000,163.310 117.000,192.755 83.000,192.755 66.000,163.310 83.000,133.865 117.000,133.865" fill="#FFD740" stroke="#FFD740" stroke-width="3.74" stroke-linejoin="round"/>
<polygon points="79.172,131.655 62.172,161.100 28.172,161.100 11.172,131.655 28.172,102.210 62.172,102.210" fill="#64FFDA" stroke="#64FFDA" stroke-width="3.74" stroke-linejoin="round"/>
<polygon points="79.172,68.345 62.172,97.790 28.172,97.790 11.172,68.345 28.172,38.900 62.172,38.900" fill="#FF8A65" stroke="#FF8A65" stroke-width="3.74" stroke-linejoin="round"/>
<polygon points="134.000,36.690 117.000,66.135 83.000,66.135 66.000,36.690 83.000,7.245 117.000,7.245" fill="#3D5AFE" stroke="#3D5AFE" stroke-width="3.74" stroke-linejoin="round"/>
<polygon points="188.828,68.345 171.828,97.790 137.828,97.790 120.828,68.345 137.828,38.900 171.828,38.900" fill="#E1B07E" stroke="#E1B07E" stroke-width="3.74" stroke-linejoin="round"/>
<polygon points="134.000,100.000 117.000,129.445 83.000,129.445 66.000,100.000 83.000,70.555 117.000,70.555" fill="#B388FF" stroke="#B388FF" stroke-width="3.74" stroke-linejoin="round"/></svg>
